<?xml version="1.0" standalone="no"?>
<!DOCTYPE svg PUBLIC "-//W3C//DTD SVG 20010904//EN"
 "http://www.w3.org/TR/2001/REC-SVG-20010904/DTD/svg10.dtd">
<svg version="1.0" xmlns="http://www.w3.org/2000/svg"
 width="2307.000000pt" height="1080.000000pt" viewBox="0 0 2307.000000 1080.000000"
 preserveAspectRatio="xMidYMid meet">

<g transform="translate(0.000000,1080.000000) scale(0.100000,-0.100000)"
fill="#000000" stroke="none">
<path d="M4860 10435 c-36 -8 -88 -14 -117 -14 -28 -1 -87 -8 -130 -16 -43 -8
-93 -15 -112 -15 -19 0 -62 -6 -95 -14 -65 -15 -213 -47 -336 -73 -41 -8 -84
-19 -95 -24 -11 -4 -37 -13 -59 -18 -21 -6 -47 -18 -57 -27 -19 -17 -19 -56
-19 -1416 l1 -1399 -21 -29 c-12 -16 -27 -33 -35 -37 -7 -5 -67 -59 -132 -122
-253 -244 -376 -363 -573 -553 -113 -108 -266 -255 -340 -327 -151 -147 -166
-154 -217 -98 -37 40 -470 459 -483 467 -33 21 -291 287 -296 305 -8 34 139
316 275 525 54 83 215 301 274 370 66 77 154 176 197 219 25 25 55 59 68 75
l22 30 0 693 c0 587 -2 694 -14 699 -8 3 -37 -11 -65 -30 -28 -20 -55 -36 -61
-36 -5 0 -10 -4 -10 -9 0 -5 -17 -20 -37 -32 -71 -44 -285 -213 -403 -317
-151 -134 -317 -298 -455 -451 -22 -24 -47 -51 -55 -60 -9 -9 -33 -38 -55 -66
-22 -27 -46 -57 -54 -65 -44 -45 -327 -446 -369 -523 -10 -18 -29 -50 -43 -72
-14 -22 -29 -47 -32 -55 -4 -8 -25 -46 -47 -85 -78 -136 -207 -413 -275 -590
-14 -38 -32 -83 -40 -100 -19 -43 -63 -176 -91 -275 -14 -47 -29 -99 -34 -116
-25 -76 -50 -46 385 -459 116 -109 273 -260 350 -334 77 -75 231 -223 343
-330 164 -158 202 -199 202 -221 0 -31 -14 -46 -293 -313 -108 -104 -221 -212
-250 -240 -62 -60 -394 -376 -512 -487 -234 -221 -238 -225 -232 -267 9 -70
92 -343 132 -438 7 -16 36 -88 65 -158 28 -71 55 -136 60 -145 5 -9 25 -53 45
-97 70 -152 164 -335 176 -345 4 -3 17 -25 30 -50 13 -25 43 -74 66 -110 24
-36 43 -71 43 -77 0 -7 4 -13 9 -13 5 0 22 -21 37 -48 15 -26 59 -90 98 -142
39 -52 79 -108 90 -124 10 -16 28 -40 41 -55 21 -24 37 -44 135 -163 118 -143
349 -376 535 -539 28 -24 52 -46 55 -49 67 -70 490 -380 518 -380 9 0 12 175
12 711 l0 711 -68 72 c-174 183 -212 226 -309 355 -24 31 -52 67 -63 81 -11
14 -57 81 -103 150 -110 169 -105 161 -123 195 -8 17 -30 57 -50 90 -71 123
-126 246 -120 270 3 12 25 40 48 61 58 51 440 417 616 589 79 77 151 144 162
149 16 7 47 -19 192 -162 175 -172 241 -236 384 -372 43 -41 183 -174 309
-296 127 -122 265 -255 308 -296 l77 -74 0 -276 c0 -239 2 -279 16 -292 14
-14 76 -16 572 -14 l557 3 3 531 2 531 -59 59 c-62 63 -406 394 -456 439 -16
15 -95 91 -176 169 -80 78 -244 236 -364 351 -421 404 -505 488 -505 508 0 20
35 56 341 347 107 102 253 241 324 310 72 70 182 176 245 237 63 61 138 133
166 160 28 26 148 141 266 255 l215 207 5 1048 c3 576 3 1368 -1 1758 l-6 710
-30 2 c-16 1 -59 -5 -95 -12z"/>
<path d="M5607 10438 c-16 -12 -17 -199 -15 -3813 l3 -3800 545 -3 c300 -1
555 0 567 3 l23 5 2 1170 c2 943 6 1172 16 1182 11 11 351 14 1790 18 l1777 5
8 75 c9 80 -7 487 -24 625 -6 44 -14 122 -19 174 -11 107 -19 154 -66 381 -33
157 -47 217 -78 320 -8 25 -21 72 -31 105 -28 94 -72 219 -125 356 -28 69 -50
128 -50 132 0 8 -33 80 -109 237 -47 97 -152 295 -196 368 -46 78 -134 216
-169 266 -24 33 -54 77 -67 96 -178 257 -467 580 -733 818 -72 64 -133 119
-136 122 -3 3 -36 30 -75 60 -38 30 -74 58 -80 63 -44 35 -228 168 -260 187
-22 13 -44 30 -48 37 -4 7 -14 13 -22 13 -7 0 -15 4 -17 8 -1 5 -15 15 -30 23
-15 8 -80 46 -145 85 -99 60 -409 221 -518 270 -73 32 -124 53 -170 69 -27 10
-54 22 -60 25 -23 17 -325 117 -420 141 -22 5 -49 13 -60 18 -19 8 -52 16
-260 61 -55 12 -125 28 -156 36 -30 8 -73 14 -95 14 -21 1 -66 7 -99 15 -33 8
-87 15 -120 15 -33 0 -78 4 -100 9 -84 19 -159 23 -178 9z m1396 -1511 c94
-47 197 -101 227 -121 30 -20 58 -36 62 -36 20 0 374 -246 418 -290 10 -10 44
-37 75 -60 128 -94 426 -396 535 -540 19 -25 49 -63 68 -85 39 -47 39 -47 78
-105 17 -25 46 -68 65 -95 19 -28 39 -60 46 -70 110 -181 153 -259 222 -397
44 -90 81 -170 81 -177 0 -7 7 -25 14 -39 25 -45 44 -93 81 -202 58 -170 65
-194 65 -211 0 -9 7 -30 15 -45 22 -42 19 -91 -5 -104 -13 -7 -177 -12 -467
-15 -247 -2 -440 -2 -430 1 9 3 17 11 17 17 0 20 -43 89 -117 188 -91 122
-173 240 -173 249 0 3 32 28 70 54 88 61 144 123 182 204 24 49 34 61 48 57
47 -15 105 51 98 114 -4 44 -27 59 -68 44 -28 -11 -30 -10 -30 12 0 32 50 207
63 220 6 7 11 6 14 -3 3 -6 9 -10 14 -6 13 8 11 89 -3 136 -15 51 -76 120
-129 146 l-41 21 37 15 c21 9 39 16 40 16 1 0 20 7 40 16 56 23 28 35 -74 32
l-85 -2 -11 55 c-12 61 -40 113 -55 104 -6 -4 -10 -36 -10 -72 0 -62 -1 -65
-17 -51 -31 27 -127 77 -188 98 -152 52 -367 -6 -499 -135 l-41 -40 48 -3 48
-3 -46 -52 c-70 -80 -154 -267 -120 -267 8 0 17 4 20 10 3 5 14 14 24 20 17 9
18 7 6 -28 -17 -48 -30 -152 -19 -152 4 0 18 9 30 21 l22 21 7 -44 c4 -24 13
-58 21 -75 13 -32 12 -33 -12 -33 -41 0 -64 -18 -64 -50 0 -66 38 -100 95 -86
17 4 25 2 25 -7 0 -8 14 -41 31 -75 34 -70 111 -145 185 -182 27 -14 51 -26
53 -27 2 -1 -33 -57 -78 -125 -44 -68 -111 -172 -149 -233 l-67 -110 -263 -3
c-251 -2 -262 -2 -282 18 -20 20 -20 30 -20 1329 0 1452 -5 1347 65 1331 19
-4 113 -46 208 -93z m487 -982 c0 -2 -18 -14 -40 -25 -22 -11 -40 -18 -40 -15
0 2 17 13 38 24 42 23 42 23 42 16z m-54 -70 c-11 -8 -25 -15 -30 -15 -6 1 0
7 14 15 32 19 40 18 16 0z m24 -159 c0 -2 -8 -10 -17 -17 -16 -13 -17 -12 -4
4 13 16 21 21 21 13z m80 1 c0 -2 -15 -16 -32 -33 l-33 -29 29 33 c28 30 36
37 36 29z m285 -29 c-11 -6 -46 -28 -77 -49 -32 -22 -60 -39 -63 -39 -3 0 -5
10 -5 21 0 19 -2 20 -17 8 -16 -13 -17 -12 -4 4 18 23 31 22 31 -3 0 -17 8
-14 66 25 36 25 71 45 77 45 7 0 3 -6 -8 -12z m-335 -107 c-75 -79 -89 -83
-90 -31 -1 24 -2 23 -33 -15 -18 -21 -42 -51 -54 -65 l-22 -25 1 45 c1 41 1
42 7 12 l6 -32 43 55 c43 57 62 63 62 19 0 -13 2 -24 5 -24 3 0 35 32 71 70
37 39 69 70 73 70 3 0 -28 -35 -69 -79z m122 -171 c26 0 41 -37 35 -89 -10
-86 -98 -131 -152 -77 -31 32 -47 92 -35 135 16 56 23 60 82 45 29 -8 60 -14
70 -14z m308 -40 c17 0 60 -35 60 -49 0 -3 -45 -6 -100 -6 -62 0 -99 4 -97 10
5 15 90 56 105 50 8 -3 22 -5 32 -5z"/>
<path d="M6760 8994 c0 -8 5 -12 10 -9 6 3 10 10 10 16 0 5 -4 9 -10 9 -5 0
-10 -7 -10 -16z"/>
<path d="M18637 4301 c-44 -11 -78 -28 -98 -47 -93 -87 -92 -249 2 -328 55
-47 95 -59 195 -59 73 -1 99 4 136 22 93 44 132 104 132 201 0 116 -59 185
-184 214 -81 19 -99 19 -183 -3z"/>
<path d="M17144 4267 c-3 -8 -4 -45 -2 -83 l3 -69 71 -6 c87 -6 135 -33 163
-92 20 -41 20 -62 23 -937 l3 -895 -24 -41 c-32 -56 -89 -88 -171 -94 l-65 -5
0 -80 0 -80 500 0 500 0 0 80 0 80 -66 7 c-92 9 -141 37 -177 103 -16 27 -17
125 -20 1078 l-2 1047 -366 0 c-297 0 -366 -3 -370 -13z"/>
<path d="M12320 4045 l0 -85 40 0 c49 0 117 -26 130 -51 19 -34 10 -87 -23
-151 -26 -50 -285 -426 -317 -461 -8 -9 -270 375 -318 468 -38 72 -42 125 -11
154 21 20 97 41 144 41 24 0 25 2 25 80 l0 80 -520 0 -520 0 0 -80 0 -80 33 0
c55 0 146 -29 185 -58 20 -15 76 -89 127 -167 174 -266 476 -735 481 -749 3
-8 -58 -97 -148 -214 -84 -110 -221 -289 -304 -399 -207 -271 -263 -320 -386
-338 l-48 -6 0 -80 0 -79 395 0 396 0 -3 83 -3 82 -60 5 c-93 8 -135 42 -135
110 0 57 49 144 190 335 73 99 153 208 178 243 25 34 49 62 52 62 11 0 367
-540 385 -582 17 -43 19 -81 5 -109 -16 -29 -84 -59 -133 -59 -23 0 -48 -5
-55 -12 -7 -7 -12 -42 -12 -85 l0 -73 523 2 522 3 0 80 0 80 -55 6 c-76 8
-152 49 -197 107 -21 26 -81 114 -133 195 -52 81 -120 185 -150 232 -184 283
-335 519 -338 526 -4 10 486 682 547 751 58 65 119 99 189 107 l57 6 0 80 0
80 -367 3 -368 2 0 -85z"/>
<path d="M20115 3614 c-212 -33 -325 -82 -430 -188 -101 -102 -174 -251 -205
-421 -18 -97 -24 -340 -11 -455 40 -365 204 -580 503 -662 73 -20 106 -23 278
-23 186 0 199 1 285 28 50 16 113 42 142 58 69 40 139 112 159 165 31 82 3
213 -47 221 -8 2 -27 -18 -43 -43 -56 -89 -172 -162 -299 -188 -94 -20 -156
-20 -226 -2 -136 37 -212 140 -250 343 -53 282 -24 683 62 846 62 118 181 166
284 116 75 -36 115 -130 129 -308 l7 -83 74 6 c217 20 326 106 325 259 0 79
-19 125 -77 181 -96 94 -260 144 -490 151 -77 2 -153 1 -170 -1z"/>
<path d="M21780 3614 c-312 -56 -492 -191 -585 -439 -42 -110 -55 -191 -62
-361 -13 -353 54 -572 226 -745 132 -132 296 -195 537 -206 271 -12 492 56
637 195 156 150 228 364 229 677 0 340 -97 590 -284 730 -82 61 -137 89 -245
121 -78 24 -108 27 -258 30 -93 1 -181 0 -195 -2z m291 -222 c101 -52 162
-169 190 -363 18 -123 15 -481 -4 -604 -40 -251 -138 -365 -313 -365 -178 0
-276 130 -315 419 -7 51 -9 176 -6 329 4 211 7 259 26 327 30 111 64 178 116
223 54 48 90 60 181 61 60 1 80 -3 125 -27z"/>
<path d="M15885 3595 c-192 -31 -322 -96 -379 -188 -24 -39 -30 -59 -30 -110
0 -40 6 -73 17 -95 37 -68 139 -108 308 -119 l96 -6 6 83 c9 109 47 196 103
231 56 35 164 35 213 0 66 -47 94 -163 89 -376 l-3 -130 -183 -7 c-277 -11
-448 -47 -576 -122 -58 -34 -133 -117 -161 -179 -51 -113 -53 -311 -4 -443 27
-72 97 -162 156 -201 88 -58 146 -75 274 -81 204 -8 288 24 422 161 74 76 90
88 101 76 7 -8 25 -58 41 -111 l28 -98 294 0 294 0 -3 83 -3 82 -51 5 c-60 6
-97 28 -121 73 -16 29 -19 80 -24 557 -5 510 -6 527 -28 595 -55 170 -154 258
-343 306 -110 28 -399 35 -533 14z m425 -1029 c0 -84 -4 -177 -10 -206 -16
-85 -58 -166 -111 -214 -54 -48 -102 -66 -181 -66 -108 0 -164 71 -175 221
-15 214 59 354 206 389 54 13 164 27 229 29 l42 1 0 -154z"/>
<path d="M14304 3591 c-158 -25 -282 -107 -367 -243 -10 -16 -21 -28 -25 -28
-4 0 -20 54 -36 120 -15 66 -32 123 -37 125 -5 3 -144 3 -309 -1 l-300 -7 0
-77 0 -77 62 -7 c81 -8 118 -30 148 -91 l25 -50 3 -890 c2 -632 0 -905 -8
-942 -19 -87 -99 -143 -207 -143 l-43 0 0 -79 c0 -46 5 -83 11 -86 5 -4 237
-4 515 0 l504 8 0 77 0 77 -78 5 c-96 6 -156 35 -188 91 -19 34 -22 59 -28
275 -4 130 -11 280 -15 332 -5 52 -5 99 -1 103 4 5 28 -18 53 -50 109 -139
231 -193 432 -193 193 0 314 45 427 160 151 154 218 410 205 785 -16 459 -162
714 -451 789 -70 19 -225 27 -292 17z m62 -250 c133 -60 196 -266 197 -636 0
-447 -90 -635 -302 -635 -80 0 -151 30 -197 82 -84 96 -116 246 -117 548 0
227 9 323 43 432 22 72 70 151 111 180 66 49 191 63 265 29z"/>
<path d="M18347 3573 l-98 -4 3 -77 3 -76 77 -11 c106 -14 159 -56 178 -141
13 -55 13 -1029 0 -1076 -13 -45 -52 -93 -91 -114 -16 -8 -59 -18 -94 -21
l-65 -6 0 -84 0 -83 498 2 497 3 3 83 3 82 -38 0 c-101 1 -175 39 -209 107
-18 36 -19 77 -24 728 l-5 690 -270 0 c-148 1 -314 -1 -368 -2z"/>
<path d="M3938 2793 c23 -2 59 -2 80 0 20 2 1 4 -43 4 -44 0 -61 -2 -37 -4z"/>
<path d="M5892 2793 c147 -2 390 -2 540 0 150 1 30 2 -267 2 -297 0 -420 -1
-273 -2z"/>
<path d="M6650 1744 c-36 -14 -83 -32 -105 -40 -22 -9 -56 -19 -76 -23 -19 -4
-42 -11 -49 -16 -7 -5 -30 -12 -49 -16 -20 -4 -67 -17 -106 -29 -66 -20 -119
-31 -308 -65 -43 -8 -86 -16 -95 -19 -9 -3 -68 -10 -131 -16 -62 -5 -119 -15
-127 -21 -12 -10 -14 -105 -14 -565 l0 -554 78 0 c74 0 295 25 432 49 252 45
230 40 410 87 74 20 154 40 178 46 l42 10 0 599 c0 329 -3 599 -7 598 -5 0
-37 -12 -73 -25z"/>
<path d="M3847 1753 c-9 -9 -9 -1155 1 -1169 8 -11 88 -39 155 -54 23 -5 62
-14 87 -20 130 -34 198 -48 375 -79 193 -34 506 -63 520 -49 8 8 7 1092 -1
1112 -4 10 -30 16 -82 21 -100 8 -204 25 -432 69 -89 17 -217 51 -295 78 -16
5 -43 13 -60 18 -16 5 -76 24 -133 44 -106 37 -124 41 -135 29z"/>
<path d="M4808 353 c12 -2 32 -2 45 0 12 2 2 4 -23 4 -25 0 -35 -2 -22 -4z"/>
<path d="M5673 353 c26 -2 68 -2 95 0 26 2 4 3 -48 3 -52 0 -74 -1 -47 -3z"/>
</g>
</svg>
